Coordinates
version=1
nRows=17
nColumns=33
inDegrees=yes

Units are S.I. units (second, meters, Newtons, ...)
Angles are in degrees.

endheader
time	ground_thorax_rot_x	ground_thorax_rot_y	ground_thorax_rot_z	ground_thorax_tx	ground_thorax_ty	ground_thorax_tz	clav_prot_r	clav_elev_r	scapula_abduction_r	scapula_elevation_r	scapula_upward_rot_r	scapula_winging_r	shoulder_elv_r	plane_of_elev_r	axial_rot_r	elbow_flexion_r	pro_sup_r	wrist_flex_r	wrist_dev_r	clav_prot_l	clav_elev_l	scapula_abduction_l	scapula_elevation_l	scapula_upward_rot_l	scapula_winging_l	shoulder_elv_l	plane_of_elev_l	axial_rot_l	elbow_flexion_l	pro_sup_l	wrist_flex_l	wrist_dev_l
      7.96000000	     37.35915716	      4.84393100	     15.21919272	   -232.41801795	    841.45025242	     -5.92044784	     12.97523609	     36.34991106	     32.42298024	     45.00000000	    -45.00000000	    636.32898314	    785.81558371	     30.46370203	     71.40846964	   1092.38361196	     28.99806368	     18.32933596	      8.23365797	     11.57252822	    -45.00000000	    -33.84785298	     45.00000000	    -45.00000000	  -2419.27110798	  -4605.31783841	     13.44981464	    -67.77017120	   1089.26424168	     31.84804088	      9.96542306	    -22.09262218
      7.97000000	     37.39511829	      4.69528958	     14.96098659	   -232.88440770	    843.36128498	     -5.94495477	     12.93798017	     36.43720464	     32.58430721	     45.00000000	    -45.00000000	    636.08484855	    785.74490581	     30.59563069	     71.26434326	   1092.47707316	     29.14968247	     18.51143085	      8.07608899	     11.70844959	    -45.00000000	    -33.83462778	     45.00000000	    -45.00000000	  -2419.11719748	  -4605.29329012	     13.59344432	    -67.73265793	   1089.31613670	     31.86872773	      9.82788350	    -22.14528605
      7.98000000	     37.40719284	      4.61574071	     14.77034182	   -233.13708893	    845.17665367	     -5.95964673	     12.95175912	     36.33104877	     32.63574414	     45.00000000	    -45.00000000	    636.04213862	    785.81640799	     30.63461541	     71.24209536	   1092.59193201	     29.42877501	     18.49192355	      8.02809503	     11.74588173	    -45.00000000	    -33.95148637	     45.00000000	    -45.00000000	  -2419.06877080	  -4605.21622721	     13.57871782	    -67.81740273	   1089.42420721	     31.97344894	      9.82776699	    -22.17656773
      7.99000000	     37.40632938	      4.56868170	     14.62228583	   -233.18655978	    846.88966326	     -5.95729794	     12.95559687	     36.37466669	     32.68629079	     45.00000000	    -45.00000000	    635.98688923	    785.91855374	     30.67136978	     71.28627179	   1092.76634214	     29.79948081	     18.57995238	      7.95169352	     11.80073745	    -45.00000000	    -34.04678854	     45.00000000	    -45.00000000	  -2419.01446333	  -4605.09572830	     13.57294312	    -67.88432740	   1089.56682389	     32.10962682	      9.74500695	    -22.22325819
      8.00000000	     37.50508386	      4.31380391	     14.23633915	   -233.05086947	    848.49543864	     -5.93800731	     12.96392131	     36.26329929	     32.99727850	     45.00000000	    -45.00000000	    635.72035301	    785.72107845	     30.82092068	     71.22950171	   1092.77014549	     30.16329447	     18.53688208	      7.84654739	     11.91310234	    -45.00000000	    -34.19959627	     45.00000000	    -45.00000000	  -2419.00934125	  -4605.21986126	     13.71508693	    -67.95362835	   1089.62490683	     32.26474425	      9.65405309	    -22.20917603
      8.01000000	     37.45336565	      4.45838245	     14.30545424	   -232.74642555	    850.01019092	     -5.90604845	     13.05816399	     36.46108740	     32.85353648	     45.00000000	    -45.00000000	    635.90613744	    786.10415104	     30.72548698	     71.32604644	   1093.03462242	     30.54518579	     18.65717992	      7.84226798	     11.86233855	    -45.00000000	    -34.34662947	     45.00000000	    -45.00000000	  -2419.00673639	  -4604.94105310	     13.55640506	    -67.98764142	   1089.84750593	     32.44949737	      9.64763397	    -22.31622756
      8.02000000	     37.54875299	      4.20327223	     13.99854671	   -232.29115999	    851.42849293	     -5.86906727	     12.97455305	     36.19442364	     33.26271367	     45.00000000	    -45.00000000	    635.52695117	    785.85884858	     30.92667026	     71.19179012	   1093.02737729	     30.93205014	     18.55317077	      7.68830198	     12.05007330	    -45.00000000	    -34.36871498	     45.00000000	    -45.00000000	  -2418.90924231	  -4605.06736043	     13.80644202	    -68.06012453	   1089.89297244	     32.65117901	      9.45589066	    -22.23270288
      8.03000000	     37.48817480	      4.39919139	     14.10981166	   -231.69898748	    852.76773406	     -5.83515690	     13.12893662	     36.43825277	     33.07632205	     45.00000000	    -45.00000000	    635.72866293	    786.23887022	     30.80702189	     71.36543370	   1093.26970292	     31.35374556	     18.69314612	      7.73553117	     11.91336385	    -45.00000000	    -34.54679273	     45.00000000	    -45.00000000	  -2418.97088924	  -4604.75379126	     13.64793158	    -67.93738662	   1090.09210390	     32.88534362	      9.46984349	    -22.35837884
      8.04000000	     37.53003894	      4.30128641	     13.86999844	   -230.98721971	    854.03308893	     -5.81053148	     12.82133869	     36.08298337	     33.15534017	     45.00000000	    -45.00000000	    635.48660119	    786.17294775	     31.07974632	     71.06513446	   1093.30200710	     31.74735677	     18.55663482	      7.51243448	     12.24255381	    -45.00000000	    -34.77394094	     45.00000000	    -45.00000000	  -2418.82955678	  -4604.88410472	     13.95291715	    -67.99692224	   1090.14570924	     33.14679767	      9.27057162	    -22.27499103
      8.05000000	     37.48801725	      4.41930762	     13.94530606	   -230.16865403	    855.24000640	     -5.79693282	     13.02186688	     36.43182445	     33.12090556	     45.00000000	    -45.00000000	    635.66004322	    786.49137953	     30.92696234	     71.13046070	   1093.53609501	     32.22283799	     18.74139525	      7.63674947	     12.05204621	    -45.00000000	    -34.72932346	     45.00000000	    -45.00000000	  -2419.03148156	  -4604.45969525	     13.79548689	    -67.91012895	   1090.31120424	     33.46524243	      9.28227628	    -22.41491348
      8.06000000	     37.53610491	      4.37257005	     13.76387503	   -229.25967285	    856.39708558	     -5.79204305	     12.77312778	     36.17367778	     33.07773427	     45.00000000	    -45.00000000	    635.53374103	    786.57641772	     31.18265768	     70.82912304	   1093.55374430	     32.68970984	     18.58900821	      7.36153772	     12.19099731	    -45.00000000	    -34.94592613	     45.00000000	    -45.00000000	  -2418.93863393	  -4604.55113772	     14.07092897	    -67.97192696	   1090.39264212	     33.81635703	      9.06565349	    -22.34048802
      8.07000000	     37.53727135	      4.44339368	     13.86951654	   -228.27585076	    857.51484144	     -5.79147814	     12.88892432	     36.41294539	     33.11304589	     45.00000000	    -45.00000000	    635.63709320	    786.86867100	     31.12148432	     70.84510810	   1093.69454189	     33.26922626	     18.80862817	      7.57362301	     12.13847816	    -45.00000000	    -34.93009898	     45.00000000	    -45.00000000	  -2419.11475698	  -4604.23329610	     13.91833502	    -67.83495759	   1090.54523196	     34.23638347	      9.05980790	    -22.48827976
      8.08000000	     37.60206890	      4.24988932	     13.63067123	   -227.23305951	    858.60285485	     -5.79093192	     12.79319005	     36.14398944	     33.36348511	     45.00000000	    -45.00000000	    635.40503289	    786.83784083	     31.31621497	     70.60498782	   1093.76963712	     33.85961720	     18.63686282	      7.21272658	     12.15868460	    -45.00000000	    -35.08014840	     45.00000000	    -45.00000000	  -2419.03629645	  -4604.33328057	     14.24621169	    -67.74434148	   1090.65751968	     34.70333243	      8.82400475	    -22.41000729
      8.09000000	     37.59705870	      4.29078243	     13.81737551	   -226.14423296	    859.67273383	     -5.78787486	     12.96591284	     36.44231956	     33.41220347	     45.00000000	    -45.00000000	    635.47894501	    787.13533633	     31.34936714	     70.65691120	   1093.93457538	     34.58202837	     18.93582186	      7.50025826	     12.09349214	    -45.00000000	    -35.08142235	     45.00000000	    -45.00000000	  -2419.19548088	  -4604.01702040	     14.03134748	    -67.53275335	   1090.81604081	     35.25357613	      8.84451779	    -22.60552255
      8.10000000	     37.68273935	      4.19962259	     13.51812126	   -225.02126259	    860.73569983	     -5.78169714	     12.82675592	     36.18682093	     33.70864704	     45.00000000	    -45.00000000	    635.25943277	    787.02156558	     31.34525857	     70.42080123	   1094.01734544	     35.34851401	     18.72054814	      7.06047344	     12.18432964	    -45.00000000	    -35.31937915	     45.00000000	    -45.00000000	  -2419.10517157	  -4604.16818029	     14.50073001	    -67.36459509	   1090.93730616	     35.85573492	      8.56531414	    -22.48571499
      8.11000000	     37.67879065	      4.26836200	     13.57506455	   -223.87050187	    861.80629184	     -5.77292523	     12.91651018	     36.33941896	     33.98645038	     45.00000000	    -45.00000000	    635.14424040	    787.08191385	     31.21216606	     70.27813551	   1094.23500525	     36.33204094	     18.92711055	      7.19975051	     12.15719885	    -45.00000000	    -35.41303419	     45.00000000	    -45.00000000	  -2419.20219074	  -4603.91814291	     14.50364539	    -67.13664888	   1091.15059359	     36.59977255	      8.53370172	    -22.65545165
      8.12000000	     37.65926427	      4.29503371	     13.49731817	   -222.69366855	    862.90134617	     -5.76191434	     12.86864222	     36.28868400	     33.63863605	     45.00000000	    -45.00000000	    635.29704803	    787.41660962	     31.56879158	     70.05999407	   1094.20984216	     37.23612184	     18.86201750	      6.95459013	     12.14085796	    -45.00000000	    -35.66088489	     45.00000000	    -45.00000000	  -2419.40671981	  -4603.82934362	     14.50950208	    -66.96912588	   1091.06503097	     37.29120713	      8.42083877	    -22.65053172
